<svg width="226" height="49" viewBox="0 0 226 49" fill="none" xmlns="http://www.w3.org/2000/svg">
<path d="M91.92 9.39815V16.8266C91.92 21.2957 95.45 24.8749 99.81 24.8749H116.54V19.716H100.7C100.22 19.716 99.87 19.3661 99.87 18.8862V7.32858C99.87 6.84868 100.22 6.49875 100.7 6.49875H116.54V1.34982L99.81 1.41981C95.45 1.41981 91.92 4.99906 91.92 9.39815Z" fill="#FDFDFD"/>
<path d="M81.2 11.2478L89.85 1.27984H80.44L76.71 5.60894C75.67 6.63872 74.08 6.63872 73.11 5.60894L69.38 1.27984H59.97L68.68 11.2478C69.65 12.2775 69.65 13.8672 68.61 14.827L60.03 24.8649H69.37L73.1 20.5358C74.07 19.576 75.73 19.576 76.7 20.5358L80.5 24.8649H89.91L81.2 14.827C80.16 13.8672 80.16 12.2775 81.2 11.2478Z" fill="#FDFDFD"/>
<path d="M0.5 9.32816V24.9349L8.45 24.8649V17.5764C8.45 16.3367 9.35 15.7168 10.32 15.7168H23.94V11.6577H9.21C8.86 11.6577 8.45 11.2478 8.45 10.8278V7.31858C8.45 6.83868 8.86 6.48875 9.21 6.48875H25.12V1.34982H7.9C3.82 1.34982 0.5 4.91908 0.5 9.32816Z" fill="#FDFDFD"/>
<path d="M49.95 1.34982H37.43C32.59 1.34982 28.65 4.99906 28.65 9.39815V16.8266C28.65 21.2257 32.59 24.8749 37.43 24.8749H49.81C54.65 24.8749 57.9 21.2257 57.9 16.8266V9.32816C57.9 4.99906 54.79 1.34982 49.95 1.34982ZM49.74 18.8862C49.74 19.3661 49.33 19.716 48.84 19.716H37.5C37.08 19.716 36.67 19.3661 36.67 18.8862V7.32858C36.67 6.84868 37.01 6.49875 37.5 6.49875H48.98C49.46 6.49875 49.81 6.83868 49.81 7.25859L49.74 18.8862Z" fill="#FDFDFD"/>
<path d="M207.01 1.27984H185.85V24.7949H193.8V7.18861C193.8 6.77869 194.22 6.42876 194.56 6.42876H206.25C206.66 6.42876 207.01 6.77869 207.01 7.18861V24.7949H214.96V9.18819C214.96 4.92908 211.09 1.27984 207.01 1.27984Z" fill="#FDFDFD"/>
<path d="M174.08 1.34982H152.92V24.8649H160.94V7.25859C160.94 6.84868 161.29 6.49875 161.7 6.49875H173.39C173.73 6.49875 174.08 6.83868 174.08 7.25859V24.8649H182.1V9.25818C182.1 4.99906 178.23 1.34982 174.08 1.34982Z" fill="#FDFDFD"/>
<path d="M141.23 1.34982H128.71C123.94 1.34982 120 4.92908 120 9.32816V16.8266C120 21.2257 123.94 24.8049 128.71 24.8049L134.52 24.8749H141.09C145.93 24.8749 149.25 21.2257 149.25 16.8266V9.32816C149.25 4.92908 146.07 1.34982 141.23 1.34982ZM141.02 18.8862C141.02 19.3661 140.68 19.716 140.12 19.716H128.85C128.36 19.716 127.95 19.3661 127.95 18.8862V7.25859C127.95 6.84868 128.29 6.49875 128.85 6.49875H140.19C140.67 6.49875 141.09 6.83868 141.09 7.25859L141.02 18.8862Z" fill="#FDFDFD"/>
<path d="M5.9 34.5629C5.74 34.293 5.65 34.173 5.39 33.8231L7.23 33.2632C7.63 33.953 7.69 34.103 7.9 34.5629H12.03C12.84 34.5629 13.26 34.5429 13.78 34.4929C13.73 34.8129 13.72 35.1228 13.72 35.6027V36.6425C13.72 37.1124 13.74 37.4523 13.78 37.7822H12.08V36.0126H1.7V37.7822H0C0.05 37.3823 0.06 37.0924 0.06 36.6225V35.5927C0.06 35.2028 0.05 34.8328 0 34.4829C0.51 34.5329 0.95 34.5529 1.75 34.5529H5.9V34.5629ZM0.75 43.811C0.75 43.0411 0.74 42.6212 0.69 42.1713C1.13 42.2013 1.45 42.2213 2.3 42.2213H11.49C12.32 42.2213 12.65 42.2113 13.1 42.1713C13.05 42.7012 13.04 43.0411 13.04 43.811V46.6404C13.04 47.3602 13.07 47.9901 13.13 48.44H11.36V47.8101H2.42V48.44H0.67C0.72 47.9701 0.75 47.3602 0.75 46.6404V43.811ZM11.53 40.5117C11.53 41.0616 11.54 41.3015 11.6 41.6514C11.14 41.6014 10.61 41.5814 10.14 41.5814H3.69C3.2 41.5814 2.69 41.6014 2.23 41.6514C2.28 41.2615 2.29 41.0416 2.29 40.5117V39.5819C2.29 39.082 2.27 38.892 2.23 38.4421C2.66 38.4921 3.12 38.5021 3.69 38.5021H10.13C10.7 38.5021 11.17 38.4821 11.59 38.4421C11.54 38.862 11.52 39.062 11.52 39.5819V40.5117H11.53ZM2.29 36.5325C2.61 36.5825 3.04 36.6025 3.5 36.6025H10.34C10.82 36.6025 11.23 36.5825 11.55 36.5325V37.9722C11.19 37.9222 10.8 37.9022 10.34 37.9022H3.48C3.03 37.9022 2.65 37.9222 2.29 37.9722V36.5325ZM2.42 44.3509H5.93V43.581H2.42V44.3509ZM2.42 46.4404H5.93V45.6106H2.42V46.4404ZM3.93 40.4117H9.89V39.6718H3.93V40.4117ZM7.56 44.3509H11.36V43.581H7.56V44.3509ZM7.56 46.4404H11.36V45.6106H7.56V46.4404Z" fill="#FDFDFD"/>
<path d="M45.61 38.3221C46.39 38.3221 47.11 38.2921 47.82 38.2021V40.2017C47.1 40.1217 46.5 40.0918 45.67 40.0918H41.57V45.8605H44.94C45.91 45.8605 46.37 45.8406 46.94 45.7606V47.7102C46.35 47.6302 45.86 47.6102 44.95 47.6102H36.46C35.57 47.6102 35.03 47.6402 34.46 47.7102V45.7606C34.99 45.8306 35.49 45.8605 36.45 45.8605H39.65V40.0918H35.96C35.09 40.0918 34.42 40.1217 33.64 40.2017V38.2021C34.34 38.2821 35.02 38.3221 35.96 38.3221H39.65V35.5227C39.65 34.7729 39.62 34.273 39.55 33.6931H41.67C41.61 34.273 41.57 34.7829 41.57 35.5427V38.3221H45.61Z" fill="#FDFDFD"/>
<path d="M79.8 38.982C80.36 38.982 80.61 38.962 80.9 38.922V40.4617C80.54 40.4017 80.23 40.3817 79.77 40.3817H79.48V41.4115C79.48 42.0713 79.48 42.2313 79.53 42.5512C79.36 42.5512 79.31 42.5512 79.2 42.5412L80.26 43.3211C79.56 44.0109 78.73 44.6908 78.11 45.1107C78.15 45.144 78.1967 45.1807 78.25 45.2207C78.97 45.8006 79.76 46.2505 81.07 46.8303C80.66 47.2803 80.43 47.6002 79.97 48.34C77.57 47.0603 76.25 45.8306 75.22 43.9709C75.22 44.1442 75.2267 44.3742 75.24 44.6608C75.25 44.7408 75.25 45.0107 75.25 45.1907V46.7804C75.25 48.0001 74.8 48.35 73.22 48.35C72.93 48.35 72.62 48.35 71.8 48.32C71.72 47.6302 71.66 47.2403 71.47 46.6504C71.34 46.7204 71.33 46.7204 71.06 46.8603C70.7933 46.987 70.4167 47.157 69.93 47.3702C69.75 47.4402 69.56 47.5302 69.4 47.6102L68.64 46.0205C69.47 45.8406 70.53 45.4606 71.6 44.9407C70.84 44.1209 70.44 43.761 69.82 43.3711L70.8 42.5212C70.12 42.5412 70 42.5412 69.69 42.5812V41.1215C69.99 41.1715 70.34 41.1915 70.85 41.1915H73.65V40.3917H69.09C69.04 42.1113 68.9 43.561 68.64 44.9907C68.37 46.4504 68.05 47.3702 67.47 48.43C66.9 47.7102 66.74 47.5102 66.12 46.9903C66.6 46.0405 66.84 45.2007 67.06 43.731C67.38 41.6914 67.49 39.7118 67.49 36.6625C67.49 35.6027 67.47 35.1828 67.41 34.6329C67.92 34.7029 68.43 34.7129 69.45 34.7129H73.12C72.96 34.4329 72.87 34.293 72.56 33.8731L74.33 33.3432C74.79 34.083 74.92 34.343 75.08 34.7129H78.96C79.71 34.7129 80.36 34.6829 80.82 34.6129V36.2526C80.34 36.2126 79.98 36.1926 79.42 36.1926H75.27V36.9424H78.23C78.87 36.9424 79.15 36.9224 79.55 36.8924C79.52 37.2523 79.5 37.5423 79.5 38.0822V39.002H79.82L79.8 38.982ZM73.65 38.2621H70.96C70.55 38.2621 70.15 38.2721 69.78 38.3221V36.8624C70.1 36.9124 70.38 36.9224 70.94 36.9224H73.64V36.1726H69.14V36.5725C69.14 37.239 69.13 38.0422 69.11 38.982H73.64V38.2621H73.65ZM71.69 44.9107C72.1433 44.6841 72.7967 44.3409 73.65 43.881V42.5112H71.04C71.58 42.8512 72.11 43.3111 72.65 43.891L71.7 44.9007L71.69 44.9107ZM73.65 45.4606C72.86 45.9405 72.41 46.2005 71.65 46.5704C72.05 46.6504 72.62 46.7004 73.05 46.7004C73.59 46.7004 73.65 46.6504 73.65 46.3205V45.4606ZM77.88 38.2621H75.26V38.982H77.88V38.2621ZM75.26 41.1815H77.88V40.3817H75.26V41.1815ZM75.83 42.5112C76.24 43.1911 76.53 43.591 77.01 44.0709C77.92 43.4511 78.23 43.1711 78.79 42.5112H75.83Z" fill="#FDFDFD"/>
<path d="M104.74 39.8618C105.68 40.5916 106.3 41.1815 107.03 42.0014L106.11 43.3811C105.44 42.4613 105.3 42.2913 104.74 41.6614V46.4904C104.74 47.4102 104.75 47.8601 104.83 48.47H102.95C103.01 47.8801 103.04 47.3302 103.04 46.4904V43.891C103.04 43.501 103.06 43.0711 103.14 41.8514C102.63 43.3311 102.12 44.3109 101.22 45.4606C100.87 44.6308 100.76 44.4208 100.28 43.791C101.01 43.0311 101.52 42.2813 102.08 41.1915C102.4 40.5816 102.67 39.9218 102.84 39.3719H102.01C101.44 39.3719 101.07 39.3919 100.61 39.4719V37.7222C101.07 37.8022 101.42 37.8122 102.04 37.8122H103.04V36.2026C102.37 36.3325 102.1 36.3625 101.18 36.4925C101.02 35.8326 100.91 35.5427 100.58 34.9528C103.16 34.6829 105.05 34.213 106 33.5831L106.98 35.0628C106.94 35.0761 106.857 35.1128 106.73 35.1728C106.3 35.3527 105.47 35.6227 104.73 35.8326V37.8122H105.6C106.14 37.8122 106.44 37.8022 106.78 37.7322V39.4519C106.41 39.3919 106.06 39.3719 105.57 39.3719H104.73V39.8518L104.74 39.8618ZM113.43 42.4513C114.11 42.3113 114.45 42.2113 114.93 42.0214L115.07 43.901C114.64 43.9509 114.18 44.0309 113.56 44.1709L113.43 44.2009V46.6004C113.43 47.5002 113.45 47.9801 113.53 48.5H111.61C111.69 47.9501 111.71 47.5602 111.71 46.5804V44.5908L108.13 45.3907C107.51 45.5406 106.99 45.6806 106.59 45.7906L106.38 43.921H106.52C106.73 43.921 107.36 43.831 107.87 43.701L111.7 42.8312V35.5427C111.7 34.6129 111.68 34.173 111.6 33.6731H113.52C113.44 34.203 113.42 34.6429 113.42 35.5227V42.4413L113.43 42.4513ZM107.82 38.5821C109.24 39.5919 109.81 40.0718 110.83 41.0716L109.83 42.5013C108.58 41.1715 107.99 40.6516 106.81 39.8718L107.83 38.5821H107.82ZM108.36 34.5629C109.9 35.6227 110.56 36.1526 111.43 37.0824L110.35 38.5221C109.33 37.3623 108.65 36.7524 107.34 35.8726L108.36 34.5529V34.5629Z" fill="#FDFDFD"/>
<path d="M135.51 35.2628C135.51 34.5429 135.48 34.123 135.41 33.6231H137.3C137.22 34.123 137.2 34.5329 137.2 35.2428V36.5725H137.46C137.81 36.5725 138.08 36.5525 138.41 36.5125V38.1922C138.06 38.1422 137.79 38.1322 137.44 38.1322H137.2V40.5916C137.61 40.4417 137.83 40.3617 138.54 40.0918V41.6814C137.82 41.9714 137.38 42.1513 137.2 42.2113V46.7704C137.2 48.0601 136.79 48.36 135.09 48.36C134.71 48.36 134.45 48.34 133.98 48.31C133.93 47.6702 133.84 47.2303 133.6 46.6404C134.08 46.7204 134.52 46.7704 134.91 46.7704C135.43 46.7704 135.51 46.7104 135.51 46.2705V42.8312C135.063 42.9911 134.82 43.0811 134.78 43.1011C134.62 43.1478 134.433 43.2044 134.22 43.2711C134.06 43.3411 134.01 43.3511 133.87 43.4211L133.52 41.6414C134.08 41.5714 134.32 41.5115 135.51 41.1615V38.1222H134.84C134.44 38.1222 134.16 38.1322 133.62 38.2021V36.4725C134 36.5325 134.35 36.5725 134.86 36.5725H135.51V35.2528V35.2628ZM145.27 39.3919C145.76 39.3919 146.13 39.3819 146.42 39.3319L147.26 40.2417C147.13 40.4517 147.07 40.5816 146.77 41.1915C146.07 42.5912 145.34 43.621 144.29 44.7208C145.4 45.5706 146.62 46.1605 148.3 46.7004C147.79 47.3602 147.52 47.8401 147.32 48.45C145.57 47.7102 144.33 46.9703 143.02 45.8605C141.53 47.0603 140.06 47.8701 138.41 48.4C138.21 47.8201 137.9 47.2603 137.52 46.7404C139.24 46.2605 140.45 45.6806 141.83 44.6708C140.84 43.551 140.16 42.4013 139.59 40.9416C139.41 40.9416 139.23 40.9516 138.95 40.9916V39.2919C139.41 39.3619 139.98 39.3919 140.55 39.3919H142.06V37.3323H140.56C139.83 37.3323 139.19 37.3623 138.73 37.4123V35.6627C139.18 35.7127 139.73 35.7427 140.54 35.7427H142.05V35.2628C142.05 34.4929 142.03 34.133 141.96 33.6431H143.85C143.79 34.163 143.77 34.4929 143.77 35.2528V35.7527H145.98C146.7 35.7527 147.29 35.7227 147.79 35.6527V37.4323C147.3 37.3723 146.57 37.3323 145.98 37.3323H143.77V39.3919H145.27ZM141.33 40.9316C141.78 42.0114 142.35 42.9112 143.06 43.631C143.97 42.7612 144.48 42.0713 145.05 40.9316H141.33Z" fill="#FDFDFD"/>
<path d="M178.93 37.0624C179.71 37.0624 179.96 37.0424 180.44 36.9824V38.3521C179.96 38.2921 179.79 38.2921 178.93 38.2921H175.91V39.032H178.93C179.72 39.032 179.95 39.012 180.44 38.952V40.3117C180.01 40.2617 179.77 40.2517 178.93 40.2517H175.91V40.9716H179.62C180.35 40.9716 180.75 40.9616 181.16 40.8916V42.3713C180.73 42.3113 180.37 42.2913 179.63 42.2913H175.43V43.1411H179.95C180.92 43.1411 181.33 43.1211 181.76 43.0611V44.6808C181.23 44.6008 180.76 44.5908 179.95 44.5908H176.8C177.96 45.4506 180.03 46.2605 182.04 46.6104C181.72 47.0503 181.59 47.2603 181.45 47.5602C181.44 47.5902 181.37 47.7402 181.28 47.9601C181.25 48.0201 181.2 48.1401 181.14 48.2701C179.88 47.9301 178.94 47.5902 177.96 47.1003C176.85 46.5404 176.16 46.0605 175.38 45.3007C175.41 45.7806 175.43 46.1805 175.43 46.3604V47.2903C175.43 47.8901 175.45 48.1301 175.52 48.45H173.63C173.71 48.1001 173.73 47.8401 173.73 47.3102V46.3604C173.73 45.9905 173.75 45.6806 173.78 45.3007C172.97 46.1205 172.17 46.6704 170.9 47.2603C170.02 47.6802 169.2 47.9601 168.07 48.2601C167.81 47.6502 167.55 47.1503 167.18 46.6504C168.53 46.4304 169.5 46.1405 170.61 45.6206C171.37 45.2607 171.85 44.9907 172.33 44.5908H169.26C168.45 44.5908 167.99 44.6008 167.46 44.6808V43.0611C167.89 43.1211 168.29 43.1411 169.26 43.1411H173.73V42.2913H170.58C169.96 42.2913 169.61 42.3113 169.23 42.3413C169.28 41.9914 169.29 41.5714 169.29 41.0616V39.072C169.29 38.5621 169.31 38.1222 169.34 37.6723C168.88 38.2321 168.53 38.5621 167.88 39.072C167.61 38.3821 167.42 38.0122 167.05 37.4923C168.29 36.6125 169.15 35.6927 169.96 34.3929C170.18 34.033 170.36 33.6731 170.47 33.3432L172.31 33.6431C171.91 34.3096 171.62 34.7595 171.44 34.9928H174.67C174.457 34.4796 174.27 34.0997 174.11 33.8531L175.84 33.4531C176.11 33.883 176.35 34.4129 176.52 34.9928H179.51C180.21 34.9928 180.62 34.9828 181.05 34.9128V36.4125C180.65 36.3625 180.33 36.3525 179.73 36.3525H175.9V37.0724H178.92L178.93 37.0624ZM174.26 36.3425H170.95V37.0624H174.26V36.3425ZM170.95 39.022H174.26V38.2821H170.95V39.022ZM170.95 40.9616H174.26V40.2417H170.95V40.9616Z" fill="#FDFDFD"/>
<path d="M201.34 48.39C201.42 47.7802 201.44 47.2803 201.44 46.3005V36.1026C201.44 35.3627 201.41 34.8628 201.34 34.173C201.91 34.243 202.33 34.253 203.22 34.253H213.14C214.03 34.253 214.44 34.233 215 34.173C214.93 34.8129 214.92 35.2228 214.92 36.1026V46.3205C214.92 47.2703 214.95 47.8501 215.02 48.39H213.22V47.5102H203.15V48.39H201.34ZM203.15 45.9505H213.2V35.8126H203.15V45.9505ZM205.46 39.4119C204.89 39.4119 204.49 39.4419 203.96 39.5119V37.7122C204.41 37.7722 204.75 37.7922 205.55 37.7922H208.83C208.83 36.9624 208.8 36.6025 208.73 36.2226H210.55C210.47 36.6125 210.45 36.9424 210.45 37.7922H210.98C211.76 37.7922 212.13 37.7822 212.57 37.7122V39.5119C212.05 39.4419 211.65 39.4119 211.07 39.4119H210.48V43.571C210.49 45.0007 210.08 45.3707 208.43 45.3707C208 45.3707 207.54 45.3507 207.08 45.3007C207.02 44.7908 206.97 44.6008 206.8 44.0209C206.74 43.841 206.72 43.781 206.66 43.571C207.23 43.701 207.68 43.751 208.22 43.751C208.73 43.751 208.84 43.641 208.84 43.1611V40.1117C207.79 41.9314 206.63 43.0811 204.45 44.5108C204.13 43.881 204.04 43.721 203.39 42.9712C204.39 42.4713 205.06 42.0713 205.77 41.4615C206.58 40.8016 207.03 40.2717 207.5 39.4219H205.46V39.4119Z" fill="#FDFDFD"/>
<path d="M219.92 1.74974H222.54C222.97 1.74974 223.33 1.80973 223.61 1.9397C224.14 2.17965 224.41 2.62956 224.41 3.26942C224.41 3.60935 224.34 3.8793 224.2 4.09925C224.06 4.30921 223.86 4.48917 223.6 4.61914C223.82 4.70912 223.99 4.8291 224.11 4.96907C224.22 5.11904 224.29 5.34899 224.3 5.67892L224.33 6.43876C224.33 6.64872 224.36 6.81868 224.38 6.91866C224.43 7.09863 224.51 7.2086 224.63 7.26859V7.39856H223.67C223.67 7.39856 223.62 7.28859 223.61 7.2086C223.59 7.12862 223.58 6.97865 223.57 6.7587L223.52 5.81889C223.5 5.44897 223.37 5.19902 223.11 5.07905C222.96 5.00906 222.74 4.97907 222.43 4.97907H220.7V7.39856H219.92V1.74974ZM222.46 4.3292C222.82 4.3292 223.1 4.25922 223.3 4.10925C223.51 3.96928 223.61 3.70933 223.61 3.32941C223.61 2.92949 223.46 2.65955 223.17 2.50958C223.01 2.4296 222.81 2.3996 222.55 2.3996H220.69V4.3292H222.46Z" fill="#FDFDFD"/>
<path d="M221.93 8.6383C219.69 8.6383 217.86 6.80869 217.86 4.56915C217.86 2.32962 219.69 0.5 221.93 0.5C224.17 0.5 226 2.32962 226 4.56915C226 6.80869 224.17 8.6383 221.93 8.6383ZM221.93 0.78994C219.85 0.78994 218.15 2.48959 218.15 4.56915C218.15 6.64872 219.84 8.34837 221.93 8.34837C224.02 8.34837 225.71 6.64872 225.71 4.56915C225.71 2.48959 224.02 0.78994 221.93 0.78994Z" fill="#FDFDFD"/>
</svg>